<svg width="217" height="319" viewBox="0 0 117 119" fill="none" xmlns="http://www.w3.org/2000/svg">
    <g clip-path="url(#clip0_1_19)">
    <path d="M58.5 119C90.8087 119 117 92.3609 117 59.5C117 26.6391 90.8087 0 58.5 0C26.1913 0 0 26.6391 0 59.5C0 92.3609 26.1913 119 58.5 119Z" fill="url(#paint0_linear_1_19)"/>
    <path d="M57.571 80.32C54.2003 80.32 51.171 79.552 48.483 78.016C45.795 76.4373 43.6617 74.304 42.083 71.616C40.547 68.928 39.779 65.8773 39.779 62.464C39.779 59.0933 40.5257 56.064 42.019 53.376C43.555 50.688 45.6243 48.576 48.227 47.04C50.8297 45.4613 53.7737 44.672 57.059 44.672C59.9177 44.672 62.499 45.2907 64.803 46.528C67.107 47.7227 68.963 49.3227 70.371 51.328V32.512C70.371 31.744 70.6057 31.1467 71.075 30.72C71.5443 30.2507 72.1417 30.016 72.867 30.016C73.5923 30.016 74.1897 30.2507 74.659 30.72C75.1283 31.1467 75.363 31.744 75.363 32.512V62.72C75.2777 66.048 74.4457 69.056 72.867 71.744C71.331 74.3893 69.219 76.48 66.531 78.016C63.8857 79.552 60.899 80.32 57.571 80.32ZM57.571 75.84C60.0457 75.84 62.243 75.264 64.163 74.112C66.1257 72.9173 67.6617 71.3173 68.771 69.312C69.923 67.3067 70.499 65.024 70.499 62.464C70.499 59.9467 69.923 57.6853 68.771 55.68C67.6617 53.632 66.1257 52.032 64.163 50.88C62.243 49.728 60.0457 49.152 57.571 49.152C55.139 49.152 52.9417 49.728 50.979 50.88C49.0163 52.032 47.459 53.632 46.307 55.68C45.155 57.6853 44.579 59.9467 44.579 62.464C44.579 65.024 45.155 67.3067 46.307 69.312C47.459 71.3173 49.0163 72.9173 50.979 74.112C52.9417 75.264 55.139 75.84 57.571 75.84Z" fill="black"/>
    </g>
    <defs>
    <linearGradient id="paint0_linear_1_19" x1="16" y1="24" x2="79" y2="114" gradientUnits="userSpaceOnUse">
    <stop stop-color="#D9D9D9"/>
    <stop offset="1" stop-color="#D9D9D9" stop-opacity="0"/>
    </linearGradient>
    <clipPath id="clip0_1_19">
    <rect width="117" height="119" fill="white"/>
    </clipPath>
    </defs>
    </svg>
    
    