<svg width="117" height="119" viewBox="0 0 117 119" fill="none" xmlns="http://www.w3.org/2000/svg">
<ellipse cx="58.5" cy="59.5" rx="58.5" ry="59.5" fill="url(#paint0_linear_4_3)"/>
<path d="M57.632 80.256C54.304 80.256 51.296 79.488 48.608 77.952C45.9627 76.3733 43.8507 74.24 42.272 71.552C40.736 68.864 39.968 65.8347 39.968 62.464C39.968 59.0933 40.672 56.0853 42.08 53.44C43.5307 50.752 45.4933 48.64 47.968 47.104C50.4427 45.5253 53.2373 44.736 56.352 44.736C58.8693 44.736 61.1947 45.2693 63.328 46.336C65.4613 47.36 67.2533 48.768 68.704 50.56V33.28C68.704 32.2987 69.0027 31.5093 69.6 30.912C70.24 30.3147 71.0293 30.016 71.968 30.016C72.9493 30.016 73.7387 30.3147 74.336 30.912C74.9333 31.5093 75.232 32.2987 75.232 33.28V62.464C75.232 65.8347 74.4427 68.864 72.864 71.552C71.328 74.24 69.2373 76.3733 66.592 77.952C63.9467 79.488 60.96 80.256 57.632 80.256ZM57.632 74.496C59.808 74.496 61.7493 73.984 63.456 72.96C65.1627 71.8933 66.5067 70.4427 67.488 68.608C68.4693 66.7733 68.96 64.7253 68.96 62.464C68.96 60.16 68.4693 58.112 67.488 56.32C66.5067 54.528 65.1627 53.12 63.456 52.096C61.7493 51.0293 59.808 50.496 57.632 50.496C55.4987 50.496 53.5573 51.0293 51.808 52.096C50.1013 53.12 48.736 54.528 47.712 56.32C46.7307 58.112 46.24 60.16 46.24 62.464C46.24 64.7253 46.7307 66.7733 47.712 68.608C48.736 70.4427 50.1013 71.8933 51.808 72.96C53.5573 73.984 55.4987 74.496 57.632 74.496Z" fill="#222121"/>
<defs>
<linearGradient id="paint0_linear_4_3" x1="21" y1="25" x2="79" y2="114" gradientUnits="userSpaceOnUse">
<stop stop-color="#9E9B9B" stop-opacity="0.6"/>
<stop offset="1" stop-color="white" stop-opacity="0.58"/>
</linearGradient>
</defs>
</svg>
