<svg id= "praise" width="34" height="10" viewBox="0 0 34 10" fill="none" xmlns="http://www.w3.org/2000/svg">
<path d="M0.0568182 9V0.272727H3.00568C3.69034 0.272727 4.25 0.396307 4.68466 0.643466C5.12216 0.887784 5.44602 1.21875 5.65625 1.63636C5.86648 2.05398 5.97159 2.51989 5.97159 3.03409C5.97159 3.5483 5.86648 4.01562 5.65625 4.43608C5.44886 4.85653 5.12784 5.19176 4.69318 5.44176C4.25852 5.68892 3.7017 5.8125 3.02273 5.8125H0.909091V4.875H2.98864C3.45739 4.875 3.83381 4.79403 4.1179 4.6321C4.40199 4.47017 4.60795 4.25142 4.7358 3.97585C4.86648 3.69744 4.93182 3.38352 4.93182 3.03409C4.93182 2.68466 4.86648 2.37216 4.7358 2.09659C4.60795 1.82102 4.40057 1.60511 4.11364 1.44886C3.8267 1.28977 3.44602 1.21023 2.97159 1.21023H1.11364V9H0.0568182ZM7.53764 9V2.45455H8.50923V3.44318H8.57741C8.69673 3.11932 8.91264 2.85653 9.22514 2.65483C9.53764 2.45312 9.88991 2.35227 10.282 2.35227C10.3558 2.35227 10.4482 2.35369 10.5589 2.35653C10.6697 2.35937 10.7536 2.36364 10.8104 2.36932V3.39205C10.7763 3.38352 10.6982 3.37074 10.576 3.35369C10.4567 3.33381 10.3303 3.32386 10.1967 3.32386C9.87855 3.32386 9.59446 3.39062 9.34446 3.52415C9.0973 3.65483 8.90128 3.83665 8.75639 4.0696C8.61435 4.29972 8.54332 4.5625 8.54332 4.85795V9H7.53764ZM13.9286 9.15341C13.5138 9.15341 13.1374 9.07528 12.7994 8.91903C12.4613 8.75994 12.1928 8.53125 11.994 8.23295C11.7951 7.93182 11.6957 7.56818 11.6957 7.14205C11.6957 6.76705 11.7695 6.46307 11.9173 6.23011C12.065 5.99432 12.2624 5.80966 12.5096 5.67614C12.7567 5.54261 13.0295 5.44318 13.3278 5.37784C13.6289 5.30966 13.9315 5.25568 14.2354 5.21591C14.6332 5.16477 14.9556 5.12642 15.2028 5.10085C15.4528 5.07244 15.6346 5.02557 15.7482 4.96023C15.8647 4.89489 15.9229 4.78125 15.9229 4.61932V4.58523C15.9229 4.16477 15.8079 3.83807 15.5778 3.60511C15.3505 3.37216 15.0053 3.25568 14.5423 3.25568C14.0621 3.25568 13.6857 3.3608 13.413 3.57102C13.1403 3.78125 12.9485 4.00568 12.8377 4.24432L11.8832 3.90341C12.0536 3.50568 12.2809 3.19602 12.565 2.97443C12.8519 2.75 13.1644 2.59375 13.5025 2.50568C13.8434 2.41477 14.1786 2.36932 14.5082 2.36932C14.7184 2.36932 14.9599 2.39489 15.2326 2.44602C15.5082 2.49432 15.7738 2.59517 16.0295 2.74858C16.288 2.90199 16.5025 3.13352 16.6729 3.44318C16.8434 3.75284 16.9286 4.16761 16.9286 4.6875V9H15.9229V8.11364H15.8718C15.8036 8.25568 15.69 8.40767 15.5309 8.5696C15.3718 8.73153 15.1602 8.86932 14.896 8.98295C14.6317 9.09659 14.3093 9.15341 13.9286 9.15341ZM14.082 8.25C14.4798 8.25 14.815 8.17188 15.0877 8.01562C15.3633 7.85938 15.5707 7.65767 15.7099 7.41051C15.8519 7.16335 15.9229 6.90341 15.9229 6.63068V5.71023C15.8803 5.76136 15.7866 5.80824 15.6417 5.85085C15.4996 5.89062 15.3349 5.92614 15.1474 5.95739C14.9627 5.9858 14.7823 6.01136 14.6062 6.03409C14.4329 6.05398 14.2923 6.07102 14.1843 6.08523C13.9229 6.11932 13.6786 6.17472 13.4513 6.25142C13.2269 6.32528 13.0451 6.4375 12.9059 6.58807C12.7695 6.7358 12.7013 6.9375 12.7013 7.19318C12.7013 7.54261 12.8306 7.80682 13.0891 7.9858C13.3505 8.16193 13.6815 8.25 14.082 8.25ZM18.7642 9V2.45455H19.7699V9H18.7642ZM19.2756 1.36364C19.0795 1.36364 18.9105 1.29688 18.7685 1.16335C18.6293 1.02983 18.5597 0.869318 18.5597 0.681818C18.5597 0.494318 18.6293 0.333807 18.7685 0.200284C18.9105 0.0667613 19.0795 0 19.2756 0C19.4716 0 19.6392 0.0667613 19.7784 0.200284C19.9205 0.333807 19.9915 0.494318 19.9915 0.681818C19.9915 0.869318 19.9205 1.02983 19.7784 1.16335C19.6392 1.29688 19.4716 1.36364 19.2756 1.36364ZM26.2482 3.92045L25.3448 4.17614C25.288 4.02557 25.2042 3.87926 25.0934 3.73722C24.9854 3.59233 24.8377 3.47301 24.6502 3.37926C24.4627 3.28551 24.2227 3.23864 23.93 3.23864C23.5295 3.23864 23.1957 3.33097 22.9286 3.51562C22.6644 3.69744 22.5323 3.92898 22.5323 4.21023C22.5323 4.46023 22.6232 4.65767 22.805 4.80256C22.9869 4.94744 23.271 5.06818 23.6573 5.16477L24.6289 5.40341C25.2141 5.54545 25.6502 5.76278 25.9371 6.0554C26.2241 6.34517 26.3675 6.71875 26.3675 7.17614C26.3675 7.55114 26.2596 7.88636 26.0437 8.18182C25.8306 8.47727 25.5323 8.71023 25.1488 8.88068C24.7653 9.05114 24.3192 9.13636 23.8107 9.13636C23.1431 9.13636 22.5906 8.99148 22.1531 8.7017C21.7156 8.41193 21.4386 7.98864 21.3221 7.43182L22.2766 7.19318C22.3675 7.54545 22.5394 7.80966 22.7923 7.9858C23.0479 8.16193 23.3817 8.25 23.7937 8.25C24.2624 8.25 24.6346 8.15057 24.9102 7.9517C25.1886 7.75 25.3278 7.50852 25.3278 7.22727C25.3278 7 25.2482 6.80966 25.0891 6.65625C24.93 6.5 24.6857 6.38352 24.3562 6.30682L23.2653 6.05114C22.6658 5.90909 22.2255 5.68892 21.9442 5.39062C21.6658 5.08949 21.5266 4.71307 21.5266 4.26136C21.5266 3.89205 21.6303 3.56534 21.8377 3.28125C22.0479 2.99716 22.3335 2.77415 22.6942 2.61222C23.0579 2.45028 23.4698 2.36932 23.93 2.36932C24.5778 2.36932 25.0863 2.51136 25.4556 2.79545C25.8278 3.07955 26.092 3.45455 26.2482 3.92045ZM30.6257 9.13636C29.995 9.13636 29.451 8.99716 28.9936 8.71875C28.5391 8.4375 28.1882 8.04545 27.9411 7.54261C27.6967 7.03693 27.5746 6.44886 27.5746 5.77841C27.5746 5.10795 27.6967 4.51705 27.9411 4.00568C28.1882 3.49148 28.532 3.09091 28.9723 2.80398C29.4155 2.5142 29.9325 2.36932 30.5234 2.36932C30.8643 2.36932 31.201 2.42614 31.5334 2.53977C31.8658 2.65341 32.1683 2.83807 32.4411 3.09375C32.7138 3.34659 32.9311 3.68182 33.093 4.09943C33.255 4.51705 33.3359 5.03125 33.3359 5.64205V6.06818H28.2905V5.19886H32.3132C32.3132 4.82955 32.2393 4.5 32.0916 4.21023C31.9467 3.92045 31.7393 3.69176 31.4695 3.52415C31.2024 3.35653 30.8871 3.27273 30.5234 3.27273C30.1229 3.27273 29.7763 3.37216 29.4837 3.57102C29.1939 3.76705 28.9709 4.02273 28.8146 4.33807C28.6584 4.65341 28.5803 4.99148 28.5803 5.35227V5.93182C28.5803 6.42614 28.6655 6.84517 28.8359 7.18892C29.0092 7.52983 29.2493 7.78977 29.5561 7.96875C29.8629 8.14489 30.2195 8.23295 30.6257 8.23295C30.8899 8.23295 31.1286 8.19602 31.3416 8.12216C31.5575 8.04545 31.7436 7.93182 31.8999 7.78125C32.0561 7.62784 32.1768 7.4375 32.2621 7.21023L33.2337 7.48295C33.1314 7.8125 32.9595 8.10227 32.718 8.35227C32.4766 8.59943 32.1783 8.79261 31.8232 8.93182C31.468 9.06818 31.0689 9.13636 30.6257 9.13636Z" fill="black"/>
</svg>
